<svg xmlns="http://www.w3.org/2000/svg" width="42" height="42" fill="none"><path fill="#08F" d="M42 21c0 11.598-9.402 21-21 21S0 32.598 0 21 9.402 0 21 0s21 9.402 21 21"/><path fill="#fff" d="M21.719 8C14.144 8 8 13.249 8 19.723c0 4.001 2.346 7.532 5.927 9.649l-1.079 3.64a.75.75 0 0 0 .249.798.76.76 0 0 0 .834.075l4.98-2.68c.927.16 1.867.24 2.808.236 7.577 0 13.721-5.249 13.721-11.724C35.44 13.243 29.296 8 21.72 8m1.455 19.47c-4.93 0-8.928-3.418-8.928-7.63 0-4.214 3.997-7.63 8.928-7.63s8.93 3.414 8.93 7.63c0 4.214-3.999 7.63-8.93 7.63"/><path fill="#fff" d="M21.073 20.631a.91.91 0 0 0 .912-.91.91.91 0 0 0-.912-.91.91.91 0 0 0-.913.91c0 .503.408.91.913.91M23.996 22.028a.91.91 0 0 0 .913-.91.91.91 0 0 0-.913-.91.91.91 0 0 0-.912.91c0 .503.408.91.912.91M26.92 20.631a.91.91 0 0 0 .914-.91.91.91 0 0 0-.913-.91.91.91 0 0 0-.913.91c0 .503.409.91.913.91"/></svg>