<svg width="127" height="120" viewBox="0 0 127 120" fill="none" xmlns="http://www.w3.org/2000/svg">
<path d="M63.2953 0.095459C28.3455 0.095459 0 24.3106 0 54.1828C0 72.6411 10.8252 88.9326 27.3449 98.6966L22.369 115.496C22.1735 116.153 22.1782 116.853 22.3823 117.508C22.5864 118.162 22.9808 118.742 23.5155 119.173C24.0503 119.604 24.7013 119.867 25.3862 119.929C26.0712 119.991 26.7591 119.849 27.3631 119.521L50.3415 107.155C54.6189 107.897 58.9537 108.261 63.2953 108.243C98.2542 108.243 126.6 84.0279 126.6 54.1556C126.6 24.2834 98.2542 0.095459 63.2953 0.095459Z" fill="#DBDBDB"/>
<path d="M47.1123 38.8594V58.0339H51.022V62.7339H47.1123V70.2623H42.0795V62.7339H27.3555V58.0754C29.7956 54.8866 32.1941 51.684 34.5511 48.4674C36.908 45.2509 39.3066 42.0482 41.7467 38.8594H47.1123ZM42.0795 58.117V48.4258C42.0795 48.2317 42.0795 47.8851 42.0795 47.386C42.1072 46.8869 42.1349 46.36 42.1627 45.8054L33.0121 58.117H42.0795Z" fill="white"/>
<path d="M75.2169 54.8312C75.2169 57.5763 74.9258 59.961 74.3435 61.9852C73.7612 63.9817 72.9432 65.6454 71.8895 66.9764C70.8635 68.2797 69.6434 69.2502 68.2293 69.8879C66.8151 70.5257 65.2762 70.8446 63.6124 70.8446C62.0042 70.8446 60.4929 70.5257 59.0788 69.8879C57.6923 69.2502 56.4722 68.2797 55.4186 66.9764C54.3926 65.6454 53.5885 63.9817 53.0061 61.9852C52.4238 59.961 52.1327 57.5763 52.1327 54.8312C52.1327 52.0583 52.4238 49.6736 53.0061 47.6771C53.5885 45.6529 54.3926 43.9892 55.4186 42.6859C56.4722 41.355 57.6923 40.3706 59.0788 39.7328C60.4929 39.0951 62.0042 38.7762 63.6124 38.7762C65.2762 38.7762 66.8151 39.0951 68.2293 39.7328C69.6434 40.3706 70.8635 41.355 71.8895 42.6859C72.9432 43.9892 73.7612 45.6529 74.3435 47.6771C74.9258 49.6736 75.2169 52.0583 75.2169 54.8312ZM69.3939 54.8312C69.3939 52.6129 69.2275 50.7828 68.8948 49.3409C68.5897 47.8712 68.1738 46.7205 67.647 45.8886C67.1201 45.029 66.4962 44.4329 65.7753 44.1001C65.0821 43.7396 64.3611 43.5594 63.6124 43.5594C62.8915 43.5594 62.1844 43.7396 61.4912 44.1001C60.8257 44.4329 60.2295 45.029 59.7027 45.8886C59.1758 46.7205 58.746 47.8712 58.4133 49.3409C58.1083 50.7828 57.9557 52.6129 57.9557 54.8312C57.9557 57.0217 58.1083 58.838 58.4133 60.2799C58.746 61.7218 59.1758 62.8725 59.7027 63.7321C60.2295 64.5917 60.8257 65.1879 61.4912 65.5206C62.1844 65.8534 62.8915 66.0198 63.6124 66.0198C64.3611 66.0198 65.0821 65.8534 65.7753 65.5206C66.4962 65.1879 67.1201 64.5917 67.647 63.7321C68.1738 62.8725 68.5897 61.7218 68.8948 60.2799C69.2275 58.838 69.3939 57.0217 69.3939 54.8312Z" fill="white"/>
<path d="M96.6667 38.8594V58.0339H100.576V62.7339H96.6667V70.2623H91.6339V62.7339H76.9099V58.0754C79.35 54.8866 81.7486 51.684 84.1055 48.4674C86.4625 45.2509 88.861 42.0482 91.3012 38.8594H96.6667ZM91.6339 58.117V48.4258C91.6339 48.2317 91.6339 47.8851 91.6339 47.386C91.6616 46.8869 91.6894 46.36 91.7171 45.8054L82.5666 58.117H91.6339Z" fill="white"/>
<path d="M32.6578 18C32.4412 20 32.7227 24 35.5813 24C38.4399 24 38.8296 20 38.5048 18" stroke="white" stroke-width="2" stroke-linecap="round"/>
<path d="M20.6578 29C20.4412 31 20.7227 35 23.5813 35C26.4399 35 26.8296 31 26.5048 29" stroke="white" stroke-width="2" stroke-linecap="round"/>
</svg>
