<svg width="24" height="18" viewBox="0 0 24 18" fill="none" xmlns="http://www.w3.org/2000/svg">
<path d="M21 0H3C1.34325 0 0 1.34325 0 3V15C0 16.6568 1.34325 18 3 18H21C22.6568 18 24 16.6568 24 15V3C24 1.34325 22.6568 0 21 0ZM16.062 8.00536L22.4121 2.56345C22.4561 2.70408 22.5 2.8447 22.5 3V15C22.5 15.104 22.4604 15.1963 22.44 15.2944L16.062 8.00536ZM21 1.5C21.0996 1.5 21.1875 1.53811 21.2812 1.55714L12 9.51272L2.71875 1.55714C2.8125 1.53811 2.90039 1.5 3 1.5H21ZM1.55934 15.293C1.53881 15.1948 1.5 15.104 1.5 15V3C1.5 2.8447 1.54467 2.70408 1.58864 2.56345L7.93655 8.00391L1.55934 15.293ZM3 16.5C2.84841 16.5 2.71069 16.456 2.57227 16.4136L9.07617 8.98092L11.5122 11.0683C11.6521 11.19 11.8264 11.25 12 11.25C12.1736 11.25 12.3479 11.19 12.4878 11.0684L14.9238 8.98097L21.4277 16.4136C21.2901 16.456 21.1523 16.5 21 16.5H3Z" fill="white"/>
</svg>
