<svg width="24" height="25" viewBox="0 0 24 25" fill="none" xmlns="http://www.w3.org/2000/svg">
<path d="M12.1247 19.7124C12.1247 17.7351 13.0028 15.9641 14.3889 14.7641C13.4629 14.6249 12.5279 14.5553 11.5915 14.5559C5.18983 14.5559 0 17.7164 0 21.6147C0 25.5135 5.18983 24.8546 11.5915 24.8546C12.6551 24.8546 13.684 24.8727 14.6625 24.8852C13.1191 23.6878 12.1247 21.8168 12.1247 19.7124ZM11.5913 0C7.71646 0 4.57539 3.14094 4.57539 7.01555C4.57539 10.8907 7.71646 14.0318 11.5913 14.0318C15.4664 14.0318 18.6072 10.8907 18.6072 7.01555C18.6072 3.14094 15.4664 0 11.5913 0ZM11.5913 11.3765C10.2509 11.3765 9.13092 10.8506 8.84626 9.18505H10.3357C10.567 9.46264 11.0396 9.96772 11.5913 9.96772C12.1432 9.96772 12.6164 9.46264 12.8473 9.18505H14.3369C14.0522 10.8506 12.9317 11.3765 11.5913 11.3765Z" fill="#0088FF"/>
<path d="M18.7564 14.4316C15.8603 14.4316 13.5127 16.7792 13.5127 19.6753C13.5127 22.5714 15.8603 24.919 18.7564 24.919C21.6525 24.919 24.0001 22.5714 24.0001 19.6753C24.0001 16.7792 21.6525 14.4316 18.7564 14.4316ZM21.4516 20.2887H19.3697V22.3706H18.1206V20.2887H16.0386V19.0395H18.1206V16.9576H19.3697V19.0395H21.4516V20.2887Z" fill="#0088FF"/>
</svg>
