<svg width="144" height="144" viewBox="0 0 144 144" fill="none" xmlns="http://www.w3.org/2000/svg">
<path d="M71.9964 36.8437C42.5789 36.8437 18.7202 57.0398 18.7202 81.9541C18.7202 97.3488 27.8318 110.936 41.7366 119.08L37.5484 133.091C37.3839 133.639 37.3877 134.223 37.5595 134.769C37.7313 135.315 38.0633 135.798 38.5134 136.157C38.9635 136.517 39.5115 136.736 40.088 136.788C40.6645 136.84 41.2436 136.721 41.7519 136.448L61.0931 126.134C64.6934 126.753 68.342 127.057 71.9964 127.042C101.422 127.042 125.28 106.846 125.28 81.9314C125.28 57.0171 101.422 36.8437 71.9964 36.8437ZM77.6471 111.761C58.5051 111.761 42.977 98.6115 42.977 82.4002C42.977 66.1889 58.4974 53.0399 77.6471 53.0399C96.7968 53.0399 112.325 66.1813 112.325 82.4002C112.325 98.6191 96.7968 111.761 77.6471 111.761Z" fill="white"/>
<path d="M69.4851 85.4474C71.443 85.4474 73.0302 83.88 73.0302 81.9465C73.0302 80.013 71.443 78.4456 69.4851 78.4456C67.5271 78.4456 65.9399 80.013 65.9399 81.9465C65.9399 83.88 67.5271 85.4474 69.4851 85.4474Z" fill="white"/>
<path d="M80.84 90.8234C82.7979 90.8234 84.3851 89.256 84.3851 87.3225C84.3851 85.3891 82.7979 83.8217 80.84 83.8217C78.8821 83.8217 77.2949 85.3891 77.2949 87.3225C77.2949 89.256 78.8821 90.8234 80.84 90.8234Z" fill="white"/>
<path d="M92.1953 85.4474C94.1532 85.4474 95.7404 83.88 95.7404 81.9465C95.7404 80.013 94.1532 78.4456 92.1953 78.4456C90.2373 78.4456 88.6501 80.013 88.6501 81.9465C88.6501 83.88 90.2373 85.4474 92.1953 85.4474Z" fill="white"/>
</svg>
