<svg width="100" height="100" viewBox="0 0 100 100" fill="none" xmlns="http://www.w3.org/2000/svg">
<path d="M49.4974 25.586C29.3446 25.586 13 39.6111 13 56.9127C13 67.6034 19.242 77.0392 28.7676 82.6944L25.8984 92.4243C25.7857 92.8049 25.7884 93.2104 25.9061 93.5895C26.0238 93.9686 26.2512 94.3042 26.5595 94.5539C26.8679 94.8035 27.2433 94.956 27.6382 94.9919C28.0332 95.0278 28.4299 94.9456 28.7781 94.7557L42.028 87.5935C44.4944 88.0231 46.9939 88.234 49.4974 88.2236C69.6554 88.2236 86 74.1985 86 56.8969C86 39.5953 69.6554 25.586 49.4974 25.586ZM53.3685 77.6116C40.255 77.6116 29.6174 68.4803 29.6174 57.2225C29.6174 45.9646 40.2498 36.8334 53.3685 36.8334C66.4872 36.8334 77.1248 45.9594 77.1248 57.2225C77.1248 68.4856 66.4872 77.6116 53.3685 77.6116Z" fill="#DBDBDB"/>
<path d="M47.777 59.3385C49.1183 59.3385 50.2056 58.25 50.2056 56.9073C50.2056 55.5646 49.1183 54.4762 47.777 54.4762C46.4357 54.4762 45.3484 55.5646 45.3484 56.9073C45.3484 58.25 46.4357 59.3385 47.777 59.3385Z" fill="#DBDBDB"/>
<path d="M55.5558 63.0719C56.8971 63.0719 57.9844 61.9834 57.9844 60.6407C57.9844 59.2981 56.8971 58.2096 55.5558 58.2096C54.2145 58.2096 53.1272 59.2981 53.1272 60.6407C53.1272 61.9834 54.2145 63.0719 55.5558 63.0719Z" fill="#DBDBDB"/>
<path d="M63.3349 59.3385C64.6762 59.3385 65.7635 58.25 65.7635 56.9073C65.7635 55.5646 64.6762 54.4762 63.3349 54.4762C61.9936 54.4762 60.9062 55.5646 60.9062 56.9073C60.9062 58.25 61.9936 59.3385 63.3349 59.3385Z" fill="#DBDBDB"/>
</svg>
