<svg width="110" height="auto" viewBox="0 0 185 27" fill="none" xmlns="http://www.w3.org/2000/svg">
<path fill-rule="evenodd" clip-rule="evenodd" d="M57.0664 26.0965C52.0264 26.0965 48.5164 22.2265 48.5164 16.8865C48.5164 11.5465 52.0264 7.67653 57.0664 7.67653C59.3764 7.67653 61.0564 8.48653 62.1064 9.89653V0.476532H67.4464V25.6765H62.1064V23.8765C61.0564 25.2865 59.3764 26.0965 57.0664 26.0965ZM57.9064 21.5365C60.5164 21.5365 62.1964 19.5865 62.1964 16.8865C62.1964 14.1865 60.5164 12.2365 57.9064 12.2365C55.3564 12.2365 53.7364 14.1865 53.7364 16.8865C53.7364 19.5865 55.3564 21.5365 57.9064 21.5365ZM104.164 0.596527C110.554 0.596527 115.174 4.19653 116.584 8.78653H110.584C109.564 6.98653 107.254 5.60653 104.284 5.60653C99.844 5.60653 96.544 8.87653 96.544 13.4365C96.544 18.0265 99.844 21.3565 104.284 21.3565C108.094 21.3565 110.734 19.0165 111.304 16.6165H103.834V11.9965H117.124V13.4365C117.124 20.8465 111.574 26.2765 104.164 26.2765C101.097 26.2765 98.3581 25.3756 96.1892 23.8068L92.749 25.871C92.14 26.2363 91.4115 25.6294 91.6608 24.9645L93.2385 20.7575C91.865 18.7172 91.084 16.2162 91.084 13.4365C91.084 6.02653 96.634 0.596527 104.164 0.596527ZM156.819 25.6765H162.159V16.1365C162.249 13.6465 163.179 12.2665 164.919 12.2665C166.869 12.2665 167.889 13.7365 167.889 16.4065V25.6765H173.229V16.1365C173.319 13.6465 174.249 12.2665 175.989 12.2665C177.939 12.2665 178.959 13.7365 178.959 16.4065V25.6765H184.299V15.5065C184.299 10.6165 181.599 7.67654 177.549 7.67654C174.879 7.67654 173.019 8.51654 171.699 10.1965C170.529 8.57654 168.699 7.67654 166.479 7.67654C164.529 7.67654 163.209 8.36654 162.159 9.77654V8.09654H156.819V25.6765ZM142.408 26.0965C137.368 26.0965 133.858 22.2265 133.858 16.8865C133.858 11.5465 137.368 7.67654 142.408 7.67654C144.718 7.67654 146.398 8.48654 147.448 9.89654V8.09654H152.788V25.6765H147.448V23.8765C146.398 25.2865 144.718 26.0965 142.408 26.0965ZM143.248 21.5365C145.858 21.5365 147.538 19.5865 147.538 16.8865C147.538 14.1865 145.858 12.2365 143.248 12.2365C140.698 12.2365 139.078 14.1865 139.078 16.8865C139.078 19.5865 140.698 21.5365 143.248 21.5365ZM120.227 8.09654V25.6765H125.567V16.6765C125.567 14.0065 127.277 12.3865 130.127 12.3865C131.177 12.3865 132.107 12.5965 132.857 12.9865L132.797 7.97655C132.107 7.73654 131.477 7.67654 130.487 7.67654C128.237 7.67654 126.617 8.48654 125.567 9.89654V8.09654H120.227ZM70.5769 16.8865C70.5769 22.2565 74.3569 26.0965 79.7269 26.0965C83.9869 26.0965 87.4369 23.7865 88.3369 20.4265H82.9669C82.5169 21.2665 81.2569 21.8065 79.7269 21.8065C77.7169 21.8065 76.3069 20.6365 75.8869 18.5965H88.7569C88.8469 17.9665 88.8769 17.3965 88.8769 16.8865C88.8769 11.5165 85.0969 7.67654 79.7269 7.67654C74.3569 7.67654 70.5769 11.5465 70.5769 16.8865ZM83.6569 15.1465H75.8569C76.3069 13.0465 77.6269 11.9065 79.7269 11.9065C81.8269 11.9065 83.2069 13.0465 83.6569 15.1465ZM46.2877 16.8865C46.2877 11.5465 42.3877 7.67654 36.9577 7.67654C31.5277 7.67654 27.6277 11.5465 27.6277 16.8865C27.6277 22.2265 31.5277 26.0965 36.9577 26.0965C42.3877 26.0965 46.2877 22.2265 46.2877 16.8865ZM32.7877 16.8865C32.7877 14.1865 34.4377 12.2365 36.9577 12.2365C39.4777 12.2365 41.1277 14.1865 41.1277 16.8865C41.1277 19.5865 39.4777 21.5365 36.9577 21.5365C34.4377 21.5365 32.7877 19.5865 32.7877 16.8865ZM13.08 26.2765C5.55 26.2765 0 20.8465 0 13.4365C0 6.02653 5.55 0.596527 13.08 0.596527C19.8 0.596527 24.3 4.64653 25.29 9.80653H19.77C19.2 7.46653 16.71 5.60653 13.2 5.60653C8.76 5.60653 5.46 8.87653 5.46 13.4365C5.46 17.9665 8.76 21.2665 13.2 21.2665C16.71 21.2665 19.59 18.9565 20.01 16.7365H25.53C25.2976 18.261 24.6649 19.7566 23.7006 21.0949L25.1517 24.9645C25.401 25.6294 24.6725 26.2363 24.0635 25.871L20.812 23.9201C18.7368 25.3648 16.0919 26.2765 13.08 26.2765Z" fill="#0088FF"/>
</svg>
