<svg width="185" height="139" viewBox="0 0 185 139" fill="none" xmlns="http://www.w3.org/2000/svg">
<path fill-rule="evenodd" clip-rule="evenodd" d="M57.0664 138.097C52.0264 138.097 48.5164 134.227 48.5164 128.887C48.5164 123.547 52.0264 119.677 57.0664 119.677C59.3764 119.677 61.0564 120.487 62.1064 121.897V112.477H67.4464V137.677H62.1064V135.877C61.0564 137.287 59.3764 138.097 57.0664 138.097ZM57.9064 133.537C60.5164 133.537 62.1964 131.587 62.1964 128.887C62.1964 126.187 60.5164 124.237 57.9064 124.237C55.3564 124.237 53.7364 126.187 53.7364 128.887C53.7364 131.587 55.3564 133.537 57.9064 133.537ZM104.164 112.597C110.554 112.597 115.174 116.197 116.584 120.787H110.584C109.564 118.987 107.254 117.607 104.284 117.607C99.844 117.607 96.544 120.877 96.544 125.437C96.544 130.027 99.844 133.357 104.284 133.357C108.094 133.357 110.734 131.017 111.304 128.617H103.834V123.997H117.124V125.437C117.124 132.847 111.574 138.277 104.164 138.277C101.097 138.277 98.3581 137.376 96.1892 135.807L92.749 137.871C92.14 138.236 91.4115 137.629 91.6608 136.965L93.2385 132.758C91.865 130.717 91.084 128.216 91.084 125.437C91.084 118.027 96.634 112.597 104.164 112.597ZM156.819 137.677H162.159V128.137C162.249 125.647 163.179 124.267 164.919 124.267C166.869 124.267 167.889 125.737 167.889 128.407V137.677H173.229V128.137C173.319 125.647 174.249 124.267 175.989 124.267C177.939 124.267 178.959 125.737 178.959 128.407V137.677H184.299V127.507C184.299 122.617 181.599 119.677 177.549 119.677C174.879 119.677 173.019 120.517 171.699 122.197C170.529 120.577 168.699 119.677 166.479 119.677C164.529 119.677 163.209 120.367 162.159 121.777V120.097H156.819V137.677ZM142.408 138.097C137.368 138.097 133.858 134.227 133.858 128.887C133.858 123.547 137.368 119.677 142.408 119.677C144.718 119.677 146.398 120.487 147.448 121.897V120.097H152.788V137.677H147.448V135.877C146.398 137.287 144.718 138.097 142.408 138.097ZM143.248 133.537C145.858 133.537 147.538 131.587 147.538 128.887C147.538 126.187 145.858 124.237 143.248 124.237C140.698 124.237 139.078 126.187 139.078 128.887C139.078 131.587 140.698 133.537 143.248 133.537ZM120.227 120.097V137.677H125.567V128.677C125.567 126.007 127.277 124.387 130.127 124.387C131.177 124.387 132.107 124.597 132.857 124.987L132.797 119.977C132.107 119.737 131.477 119.677 130.487 119.677C128.237 119.677 126.617 120.487 125.567 121.897V120.097H120.227ZM70.5769 128.887C70.5769 134.257 74.3569 138.097 79.7269 138.097C83.9869 138.097 87.4369 135.787 88.3369 132.427H82.9669C82.5169 133.267 81.2569 133.807 79.7269 133.807C77.7169 133.807 76.3069 132.637 75.8869 130.597H88.7569C88.8469 129.967 88.8769 129.397 88.8769 128.887C88.8769 123.517 85.0969 119.677 79.7269 119.677C74.3569 119.677 70.5769 123.547 70.5769 128.887ZM83.6569 127.147H75.8569C76.3069 125.047 77.6269 123.907 79.7269 123.907C81.8269 123.907 83.2069 125.047 83.6569 127.147ZM46.2877 128.887C46.2877 123.547 42.3877 119.677 36.9577 119.677C31.5277 119.677 27.6277 123.547 27.6277 128.887C27.6277 134.227 31.5277 138.097 36.9577 138.097C42.3877 138.097 46.2877 134.227 46.2877 128.887ZM32.7877 128.887C32.7877 126.187 34.4377 124.237 36.9577 124.237C39.4777 124.237 41.1277 126.187 41.1277 128.887C41.1277 131.587 39.4777 133.537 36.9577 133.537C34.4377 133.537 32.7877 131.587 32.7877 128.887ZM13.08 138.277C5.55 138.277 0 132.847 0 125.437C0 118.027 5.55 112.597 13.08 112.597C19.8 112.597 24.3 116.647 25.29 121.807H19.77C19.2 119.467 16.71 117.607 13.2 117.607C8.76 117.607 5.46 120.877 5.46 125.437C5.46 129.967 8.76 133.267 13.2 133.267C16.71 133.267 19.59 130.957 20.01 128.737H25.53C25.2976 130.261 24.6649 131.757 23.7006 133.095L25.1517 136.965C25.401 137.629 24.6725 138.236 24.0635 137.871L20.812 135.92C18.7368 137.365 16.0919 138.277 13.08 138.277Z" fill="#0088FF"/>
<path d="M91.9027 0C65.0139 0 43.2061 18.63 43.2061 41.6124C43.2061 55.8134 51.5345 68.3474 64.244 75.8594L60.4158 88.7839C60.2654 89.2895 60.269 89.8282 60.426 90.3317C60.583 90.8353 60.8864 91.2811 61.2979 91.6127C61.7093 91.9443 62.2102 92.1468 62.7371 92.1945C63.2641 92.2422 63.7934 92.133 64.258 91.8808L81.9366 82.367C85.2275 82.9376 88.5624 83.2177 91.9027 83.204C118.799 83.204 140.606 64.5739 140.606 41.5915C140.606 18.6091 118.799 0 91.9027 0ZM97.0677 69.1076C79.5711 69.1076 65.3778 56.9782 65.3778 42.024C65.3778 27.0697 79.5641 14.9403 97.0677 14.9403C114.571 14.9403 128.765 27.0627 128.765 42.024C128.765 56.9852 114.571 69.1076 97.0677 69.1076Z" fill="#0088FF"/>
<path d="M89.6071 44.8349C91.3967 44.8349 92.8475 43.389 92.8475 41.6055C92.8475 39.8219 91.3967 38.3761 89.6071 38.3761C87.8175 38.3761 86.3667 39.8219 86.3667 41.6055C86.3667 43.389 87.8175 44.8349 89.6071 44.8349Z" fill="#0088FF"/>
<path d="M99.986 49.7941C101.776 49.7941 103.226 48.3482 103.226 46.5647C103.226 44.7811 101.776 43.3353 99.986 43.3353C98.1964 43.3353 96.7456 44.7811 96.7456 46.5647C96.7456 48.3482 98.1964 49.7941 99.986 49.7941Z" fill="#0088FF"/>
<path d="M110.365 44.8349C112.155 44.8349 113.606 43.389 113.606 41.6055C113.606 39.8219 112.155 38.3761 110.365 38.3761C108.576 38.3761 107.125 39.8219 107.125 41.6055C107.125 43.389 108.576 44.8349 110.365 44.8349Z" fill="#0088FF"/>
</svg>
