<svg width="98" height="93" viewBox="0 0 98 93" fill="none" xmlns="http://www.w3.org/2000/svg">
<path d="M48.6966 0.023468C21.8078 0.023468 0 18.6535 0 41.6359C0 55.8369 8.32841 68.3708 21.038 75.8828L17.2097 88.8074C17.0593 89.313 17.0629 89.8516 17.2199 90.3552C17.377 90.8588 17.6804 91.3046 18.0918 91.6362C18.5032 91.9678 19.0041 92.1703 19.5311 92.218C20.058 92.2657 20.5873 92.1565 21.0519 91.9042L38.7306 82.3904C42.0214 82.9611 45.3564 83.2412 48.6966 83.2274C75.5925 83.2274 97.4002 64.5974 97.4002 41.615C97.4002 18.6326 75.5925 0.023468 48.6966 0.023468ZM53.8616 69.1311C36.365 69.1311 22.1717 57.0017 22.1717 42.0474C22.1717 27.0932 36.358 14.9638 53.8616 14.9638C71.3653 14.9638 85.5585 27.0862 85.5585 42.0474C85.5585 57.0087 71.3653 69.1311 53.8616 69.1311V69.1311Z" fill="#0088FF"/>
<path d="M46.401 44.8583C48.1906 44.8583 49.6414 43.4125 49.6414 41.6289C49.6414 39.8454 48.1906 38.3995 46.401 38.3995C44.6114 38.3995 43.1606 39.8454 43.1606 41.6289C43.1606 43.4125 44.6114 44.8583 46.401 44.8583Z" fill="#0088FF"/>
<path d="M56.7799 49.8175C58.5695 49.8175 60.0203 48.3717 60.0203 46.5881C60.0203 44.8046 58.5695 43.3587 56.7799 43.3587C54.9903 43.3587 53.5396 44.8046 53.5396 46.5881C53.5396 48.3717 54.9903 49.8175 56.7799 49.8175Z" fill="#0088FF"/>
<path d="M67.1591 44.8583C68.9487 44.8583 70.3995 43.4125 70.3995 41.6289C70.3995 39.8454 68.9487 38.3995 67.1591 38.3995C65.3695 38.3995 63.9187 39.8454 63.9187 41.6289C63.9187 43.4125 65.3695 44.8583 67.1591 44.8583Z" fill="#0088FF"/>
</svg>
