<svg width="107" height="100" viewBox="0 0 107 100" fill="none" xmlns="http://www.w3.org/2000/svg">
<path d="M53.2762 0C23.8587 0 0 20.1961 0 45.1104C0 60.5051 9.11163 74.0927 23.0164 82.2361L18.8281 96.2471C18.6636 96.7952 18.6675 97.3792 18.8393 97.9251C19.0111 98.471 19.3431 98.9543 19.7932 99.3137C20.2433 99.6732 20.7913 99.8927 21.3678 99.9444C21.9443 99.9962 22.5234 99.8778 23.0317 99.6043L42.3729 89.2908C45.9732 89.9094 49.6218 90.2131 53.2762 90.1981C82.7013 90.1981 106.56 70.002 106.56 45.0877C106.56 20.1734 82.7013 0 53.2762 0ZM58.9269 74.9169C39.7849 74.9169 24.2568 61.7678 24.2568 45.5565C24.2568 29.3452 39.7772 16.1962 58.9269 16.1962C78.0766 16.1962 93.6047 29.3376 93.6047 45.5565C93.6047 61.7754 78.0766 74.9169 58.9269 74.9169V74.9169Z" fill="#dbdbdb"/>
<path d="M50.4848 48.4474C52.4427 48.4474 54.0299 46.88 54.0299 44.9465C54.0299 43.013 52.4427 41.4456 50.4848 41.4456C48.5269 41.4456 46.9397 43.013 46.9397 44.9465C46.9397 46.88 48.5269 48.4474 50.4848 48.4474Z" fill="#dbdbdb"/>
<path d="M61.8398 53.8234C63.7977 53.8234 65.3849 52.256 65.3849 50.3225C65.3849 48.3891 63.7977 46.8217 61.8398 46.8217C59.8819 46.8217 58.2947 48.3891 58.2947 50.3225C58.2947 52.256 59.8819 53.8234 61.8398 53.8234Z" fill="#dbdbdb"/>
<path d="M73.195 48.4474C75.1529 48.4474 76.7401 46.88 76.7401 44.9465C76.7401 43.013 75.1529 41.4456 73.195 41.4456C71.2371 41.4456 69.6499 43.013 69.6499 44.9465C69.6499 46.88 71.2371 48.4474 73.195 48.4474Z" fill="#dbdbdb"/>
</svg>
