<svg width="110" height="auto" viewBox="0 0 185 26" fill="none" xmlns="http://www.w3.org/2000/svg">
<path fill-rule="evenodd" clip-rule="evenodd" d="M57.0664 25.62C52.0264 25.62 48.5164 21.75 48.5164 16.41C48.5164 11.07 52.0264 7.2 57.0664 7.2C59.3764 7.2 61.0564 8.01 62.1064 9.42V0H67.4464V25.2H62.1064V23.4C61.0564 24.81 59.3764 25.62 57.0664 25.62ZM57.9064 21.06C60.5164 21.06 62.1964 19.11 62.1964 16.41C62.1964 13.71 60.5164 11.76 57.9064 11.76C55.3564 11.76 53.7364 13.71 53.7364 16.41C53.7364 19.11 55.3564 21.06 57.9064 21.06ZM104.164 0.119995C110.554 0.119995 115.174 3.72 116.584 8.31H110.584C109.564 6.50999 107.254 5.12999 104.284 5.12999C99.844 5.12999 96.544 8.39999 96.544 12.96C96.544 17.55 99.844 20.88 104.284 20.88C108.094 20.88 110.734 18.54 111.304 16.14H103.834V11.52H117.124V12.96C117.124 20.37 111.574 25.8 104.164 25.8C101.44 25.8 98.9755 25.0895 96.9389 23.8319L93.2528 25.8875C92.5827 26.2612 91.7809 25.6404 92.0553 24.9602L93.6903 20.9079C92.0375 18.7626 91.084 16.0314 91.084 12.96C91.084 5.55 96.634 0.119995 104.164 0.119995ZM156.819 25.2H162.159V15.66C162.249 13.17 163.179 11.79 164.919 11.79C166.869 11.79 167.889 13.26 167.889 15.93V25.2H173.229V15.66C173.319 13.17 174.249 11.79 175.989 11.79C177.939 11.79 178.959 13.26 178.959 15.93V25.2H184.299V15.03C184.299 10.14 181.599 7.20001 177.549 7.20001C174.879 7.20001 173.019 8.04001 171.699 9.72001C170.529 8.10001 168.699 7.20001 166.479 7.20001C164.529 7.20001 163.209 7.89001 162.159 9.30001V7.62001H156.819V25.2ZM142.408 25.62C137.368 25.62 133.858 21.75 133.858 16.41C133.858 11.07 137.368 7.20001 142.408 7.20001C144.718 7.20001 146.398 8.01001 147.448 9.42001V7.62001H152.788V25.2H147.448V23.4C146.398 24.81 144.718 25.62 142.408 25.62ZM143.248 21.06C145.858 21.06 147.538 19.11 147.538 16.41C147.538 13.71 145.858 11.76 143.248 11.76C140.698 11.76 139.078 13.71 139.078 16.41C139.078 19.11 140.698 21.06 143.248 21.06ZM120.227 7.62001V25.2H125.567V16.2C125.567 13.53 127.277 11.91 130.127 11.91C131.177 11.91 132.107 12.12 132.857 12.51L132.797 7.50001C132.107 7.26001 131.477 7.20001 130.487 7.20001C128.237 7.20001 126.617 8.01001 125.567 9.42001V7.62001H120.227ZM70.5769 16.41C70.5769 21.78 74.3569 25.62 79.7269 25.62C83.9869 25.62 87.4369 23.31 88.3369 19.95H82.9669C82.5169 20.79 81.2569 21.33 79.7269 21.33C77.7169 21.33 76.3069 20.16 75.8869 18.12H88.7569C88.8469 17.49 88.8769 16.92 88.8769 16.41C88.8769 11.04 85.0969 7.20001 79.7269 7.20001C74.3569 7.20001 70.5769 11.07 70.5769 16.41ZM83.6569 14.67H75.8569C76.3069 12.57 77.6269 11.43 79.7269 11.43C81.8269 11.43 83.2069 12.57 83.6569 14.67ZM46.2877 16.41C46.2877 11.07 42.3877 7.20001 36.9577 7.20001C31.5277 7.20001 27.6277 11.07 27.6277 16.41C27.6277 21.75 31.5277 25.62 36.9577 25.62C42.3877 25.62 46.2877 21.75 46.2877 16.41ZM32.7877 16.41C32.7877 13.71 34.4377 11.76 36.9577 11.76C39.4777 11.76 41.1277 13.71 41.1277 16.41C41.1277 19.11 39.4777 21.06 36.9577 21.06C34.4377 21.06 32.7877 19.11 32.7877 16.41ZM13.08 25.8C5.55 25.8 0 20.37 0 12.96C0 5.55 5.55 0.119995 13.08 0.119995C19.8 0.119995 24.3 4.17 25.29 9.33H19.77C19.2 6.99 16.71 5.12999 13.2 5.12999C8.76 5.12999 5.46 8.39999 5.46 12.96C5.46 17.49 8.76 20.79 13.2 20.79C16.71 20.79 19.59 18.48 20.01 16.26H25.53C25.272 17.9527 24.5204 19.6098 23.3693 21.0555L24.9447 24.9602C25.2191 25.6404 24.4173 26.2612 23.7472 25.8875L20.1439 23.878C18.1807 25.0686 15.7776 25.8 13.08 25.8Z" fill="#0088FF"/>
<path d="M10 13C10.5523 13 11 12.5523 11 12C11 11.4477 10.5523 11 10 11C9.44771 11 9 11.4477 9 12C9 12.5523 9.44771 13 10 13Z" fill="#0088FF"/>
<path d="M13 15C13.5523 15 14 14.5523 14 14C14 13.4477 13.5523 13 13 13C12.4477 13 12 13.4477 12 14C12 14.5523 12.4477 15 13 15Z" fill="#0088FF"/>
<path d="M16 13C16.5523 13 17 12.5523 17 12C17 11.4477 16.5523 11 16 11C15.4477 11 15 11.4477 15 12C15 12.5523 15.4477 13 16 13Z" fill="#0088FF"/>
</svg>
